<svg stroke="" strokeWidth="0" viewBox="0 0 16 16" xmlns="http://www.w3.org/2000/svg">
  <linearGradient id="grad" x1="0%" y1="0%" x2="100%" y2="0%">
    <stop offset="0%" style="stop-color:hsl(9, 85%, 66%);stop-opacity:1" />
    <stop offset="100%" style="stop-color:hsl(269, 85%, 66%);stop-opacity:1" />
  </linearGradient>
  <path d="M15 12a1 1 0 0 1-1 1H2a1 1 0 0 1-1-1V6a1 1 0 0 1 1-1h1.172a3 3 0 0 0 2.12-.879l.83-.828A1 1 0 0 1 6.827 3h2.344a1 1 0 0 1 .707.293l.828.828A3 3 0 0 0 12.828 5H14a1 1 0 0 1 1 1v6z"></path>
  <path d="M8 11a2.5 2.5 0 1 1 0-5 2.5 2.5 0 0 1 0 5zm0 1a3.5 3.5 0 1 0 0-7 3.5 3.5 0 0 0 0 7zM3 6.5a.5.5 0 1 1-1 0 .5.5 0 0 1 1 0z" fill="url(#grad)"></path>
</svg>
